# xmcd CD database file
#
# Track frame offsets:
#	150
#	18115
#	40465
#	53381
#	65075
#	82285
#	94352
#	110206
#	121831
#	135947
#	147164
#	159526
#	175681
#	190684
#	209232
#	223352
#	239348
#	257478
#	273556
#	285279
#
# Disc length: 4483 seconds
#
# Revision: 0
# Processed by: cddbd v1.5.2PL0 Copyright (c) Steve Scherf et al.
# Submitted via: CDex 1.70beta2
#
DISCID=2e118114
DTITLE=Eva Olmerová - Já hledám štěstí (Zlatá kolekce 1962-1992) CD3
DYEAR=2014
DGENRE=Jazz
TTITLE0=Meteor
TTITLE1=Jsi jako dlouhý most
TTITLE2=Blues samotářky
TTITLE3=Un homme et une femme (Jiří Suchý)
TTITLE4=Slunce zhaslo dojetím
TTITLE5=Černá kára
TTITLE6=Blues železničního mostu
TTITLE7=Počítám hodiny
TTITLE8=Vstává den a modře svítá
TTITLE9=Já hledám štěstí
TTITLE10=Jdou léta, jdou
TTITLE11=Monolog
TTITLE12=Poslední produkce
TTITLE13=Stačí málo, někdy půl
TTITLE14=Běž ať se ti trochu stýská
TTITLE15=Jak víš
TTITLE16=Zlatej zub
TTITLE17=Krásně to máš vymyšlené
TTITLE18=Čas kdy člověk svlíkne kůži
TTITLE19=Můj pes
EXTD=YEAR: 2014
EXTT0=
EXTT1=
EXTT2=
EXTT3=
EXTT4=
EXTT5=
EXTT6=
EXTT7=
EXTT8=
EXTT9=
EXTT10=
EXTT11=
EXTT12=
EXTT13=
EXTT14=
EXTT15=
EXTT16=
EXTT17=
EXTT18=
EXTT19=
PLAYORDER=
